<svg width="15" height="15" viewBox="0 0 15 15" fill="none" xmlns="http://www.w3.org/2000/svg">
<g clip-path="url(#clip0_31_6)">
<path d="M2.45967 4.91936C3.60587 4.91936 4.56883 4.13554 4.84186 3.07461H14.1431C14.4827 3.07461 14.758 2.79931 14.758 2.4597C14.7581 2.12006 14.4828 1.84476 14.1432 1.84476H4.84188C4.56886 0.78382 3.6059 0 2.4597 0C1.10115 0 0 1.10115 0 2.45967C0 3.81819 1.10115 4.91936 2.45967 4.91936ZM2.45967 1.22985C3.13897 1.22985 3.68952 1.78036 3.68952 2.4597C3.68952 3.13903 3.139 3.68952 2.45967 3.68952C1.78034 3.68952 1.22982 3.139 1.22982 2.45967C1.22982 1.78034 1.78036 1.22985 2.45967 1.22985Z" fill="white"/>
<path d="M12.2984 9.8387C11.1522 9.8387 10.1892 10.6225 9.91621 11.6835H0.61491C0.275301 11.6835 0 11.9588 0 12.2984C0 12.638 0.275301 12.9133 0.61491 12.9133H9.91618C10.1892 13.9742 11.1522 14.7581 12.2984 14.7581C13.6569 14.7581 14.7581 13.6569 14.7581 12.2984C14.7581 10.9399 13.6569 9.8387 12.2984 9.8387ZM12.2984 13.5282C11.6191 13.5282 11.0685 12.9777 11.0685 12.2984C11.0685 11.619 11.6191 11.0685 12.2984 11.0685C12.9777 11.0685 13.5282 11.6191 13.5282 12.2984C13.5282 12.9777 12.9777 13.5282 12.2984 13.5282Z" fill="white"/>
<path d="M14.1432 6.76412H9.76122C9.4882 5.70318 8.52523 4.91936 7.37903 4.91936C6.23283 4.91936 5.26987 5.70318 4.99684 6.76412H0.61491C0.275301 6.76412 0 7.03942 0 7.37902C0 7.71863 0.275301 7.99393 0.61491 7.99393H4.99682C5.26984 9.05487 6.2328 9.83869 7.379 9.83869C8.5252 9.83869 9.48817 9.05487 9.76119 7.99393H14.1431C14.4827 7.99393 14.758 7.71863 14.758 7.37902C14.758 7.03942 14.4828 6.76412 14.1432 6.76412ZM7.37903 8.60887C6.69973 8.60887 6.14918 8.05836 6.14918 7.37902C6.14918 6.69969 6.6997 6.14918 7.37903 6.14918C8.05836 6.14918 8.60888 6.69969 8.60888 7.37902C8.60888 8.05836 8.05834 8.60887 7.37903 8.60887Z" fill="white"/>
</g>
<defs>
<clipPath id="clip0_31_6">
<rect width="15" height="15" fill="white"/>
</clipPath>
</defs>
</svg>
