<svg width="28" height="28" viewBox="0 0 28 28" fill="none" xmlns="http://www.w3.org/2000/svg">
<path d="M14 20.7083C14.4832 20.7083 14.875 20.3166 14.875 19.8333V12.8333C14.875 12.3501 14.4832 11.9583 14 11.9583C13.5168 11.9583 13.125 12.3501 13.125 12.8333V19.8333C13.125 20.3166 13.5168 20.7083 14 20.7083Z" fill="#000AFF"/>
<path d="M14 8.16667C14.6444 8.16667 15.1667 8.68901 15.1667 9.33334C15.1667 9.97767 14.6444 10.5 14 10.5C13.3557 10.5 12.8334 9.97767 12.8334 9.33334C12.8334 8.68901 13.3557 8.16667 14 8.16667Z" fill="#000AFF"/>
<path fill-rule="evenodd" clip-rule="evenodd" d="M1.45837 14C1.45837 7.07342 7.07347 1.45833 14 1.45833C20.9267 1.45833 26.5417 7.07342 26.5417 14C26.5417 20.9266 20.9267 26.5417 14 26.5417C7.07347 26.5417 1.45837 20.9266 1.45837 14ZM14 3.20833C8.03997 3.20833 3.20837 8.03993 3.20837 14C3.20837 19.96 8.03997 24.7917 14 24.7917C19.9601 24.7917 24.7917 19.96 24.7917 14C24.7917 8.03993 19.9601 3.20833 14 3.20833Z" fill="#000AFF"/>
</svg>
