<svg width="20" height="18" viewBox="0 0 20 18" fill="none" xmlns="http://www.w3.org/2000/svg">
<path d="M16.3275 15.8047L11.1382 11.1474C10.7436 11.4543 10.2835 11.6934 9.75785 11.8646C9.23222 12.0357 8.6729 12.1213 8.07989 12.1213C6.65712 12.1213 5.45299 11.6786 4.4675 10.7932C3.482 9.90778 2.98926 8.83938 2.98926 7.58799C2.98926 6.3366 3.48254 5.2682 4.46909 4.38278C5.45565 3.49737 6.64938 3.05466 8.0503 3.05466C9.45121 3.05466 10.6417 3.49737 11.6216 4.38278C12.6016 5.2682 13.0916 6.33749 13.0916 7.59065C13.0916 8.09651 12.9995 8.58556 12.8154 9.05778C12.6312 9.53 12.355 9.97271 11.9867 10.3859L17.1957 15.0255L16.3275 15.8047ZM8.06016 11.0588C9.12893 11.0588 10.0374 10.7194 10.7855 10.0406C11.5337 9.36177 11.9077 8.54424 11.9077 7.58799C11.9077 6.63174 11.5337 5.81421 10.7855 5.13539C10.0374 4.45657 9.12893 4.11716 8.06016 4.11716C6.98043 4.11716 6.06266 4.45657 5.30684 5.13539C4.55103 5.81421 4.17313 6.63174 4.17313 7.58799C4.17313 8.54424 4.55103 9.36177 5.30684 10.0406C6.06266 10.7194 6.98043 11.0588 8.06016 11.0588Z" fill="#898989" fill-opacity="0.34"/>
</svg>
